<svg t="1605145951523" class="icon" viewBox="0 0 1024 1024" version="1.1" xmlns="http://www.w3.org/2000/svg" p-id="3525" width="126" height="126"><path d="M584.991155 456.063439c-4.20093-42.665693-9.058255-84.281154-13.91558-123.139754 22.711277-27.83116 100.428477-146.769984 100.428477-198.493932C671.504052 62.094993 621.486732 0 574.48883 0c-44.5036 0-55.399761 119.46394-55.793598 123.008475 6.95779 39.383717 14.703254 88.482083 22.18616 142.831612C512 302.99206 341.337228 444.510882 341.337228 558.329823c0 72.33476 47.129181 155.040564 174.601144 155.040564a167.380796 167.380796 0 0 0 61.963714-11.815115c0 127.8658-10.239766 291.045666-113.95022 291.045666-56.581273 0-75.485457-62.094993-78.767434-74.435224a42.534414 42.534414 0 0 0 12.340232 1.969185 52.511622 52.511622 0 0 0 0-103.316616 48.048134 48.048134 0 0 0-47.129181 51.592669c0 31.113136 17.460114 163.96754 122.614638 155.171843 122.614638-10.371045 127.8658-169.349982 126.027893-332.398568 48.70453-27.83116 92.683013-81.524293 81.393014-143.22545-8.926976-51.723948-61.569877-87.694409-95.439873-91.895338zM539.568602 118.807545c0-15.359649 40.30267-120.645452 75.354177-56.712552 28.224997 51.592669-55.399761 177.489283-56.318714 178.933353-8.008022-56.056157-15.22837-99.509524-19.035463-122.220801zM397.918501 589.31168c-13.91558-61.044761 80.080224-157.534867 101.216152-180.377422A651.669231 651.669231 0 0 0 552.565228 354.45345c3.938372 32.819764 7.614185 66.427202 11.027441 100.428477-59.075575 2.625581-106.073477 45.159995-106.073477 97.409059a87.694409 87.694409 0 0 0 11.421278 42.796972 82.180689 82.180689 0 0 1-1.706628-16.147324c0-48.967088 43.453367-88.744641 97.146501-88.744641h2.494302c5.776278 65.639528 9.845929 130.228823 10.764883 190.35463-17.197556 7.876743-151.364751 32.819764-179.721027-91.238943zM599.038014 669.523183c-1.050232-48.967088-10.239766-172.3694-10.502325-176.045214 35.707903 8.40186 64.064179 23.63023 70.89069 67.871272 2.625581 58.944296-24.549183 84.412433-60.388365 108.173942z" p-id="3526" fill="#13227a"></path></svg>